<?xml version="1.0" encoding="UTF-8" standalone="no"?><!DOCTYPE svg PUBLIC "-//W3C//DTD SVG 1.1//EN" "http://www.w3.org/Graphics/SVG/1.1/DTD/svg11.dtd"><svg width="100%" height="100%" viewBox="0 0 58 16" version="1.1" xmlns="http://www.w3.org/2000/svg" xmlns:xlink="http://www.w3.org/1999/xlink" xml:space="preserve" xmlns:serif="http://www.serif.com/" style="fill-rule:evenodd;clip-rule:evenodd;stroke-linejoin:round;stroke-miterlimit:1.41421;"><g id="Site-Footer" serif:id="Site Footer"><g id="Brackets"><path d="M7.988,13.913l0,1.349l-7.799,-7.548l7.799,-7.549l0,1.32l-6.405,6.229l6.405,6.199Z" style="fill:#d6d6d6;fill-rule:nonzero;"/><path d="M46.538,0.165l1.067,0l-6.82,15.097l-1.068,0l6.821,-15.097Z" style="fill:#d6d6d6;fill-rule:nonzero;"/><path d="M49.681,1.485l0,-1.32l7.799,7.549l-7.799,7.548l0,-1.349l6.435,-6.199l-6.435,-6.229Z" style="fill:#d6d6d6;fill-rule:nonzero;"/></g><g id="Text"><path d="M11.932,13.483c0.573,0.555 1.26,0.832 2.061,0.832c0.8,0 1.487,-0.277 2.061,-0.832c0.573,-0.555 0.86,-1.225 0.86,-2.009l0.978,0c0,1.052 -0.38,1.947 -1.141,2.683c-0.762,0.737 -1.681,1.105 -2.758,1.105c-1.078,0 -1.997,-0.368 -2.758,-1.105c-0.761,-0.736 -1.142,-1.631 -1.142,-2.683l0,-7.549c0,-1.033 0.381,-1.918 1.142,-2.655c0.761,-0.737 1.68,-1.105 2.758,-1.105c1.077,0 1.996,0.368 2.758,1.105c0.761,0.737 1.141,1.622 1.141,2.655l-0.978,0c0,-0.785 -0.287,-1.45 -0.86,-1.995c-0.574,-0.545 -1.261,-0.818 -2.061,-0.818c-0.801,0 -1.488,0.273 -2.061,0.818c-0.574,0.545 -0.86,1.21 -0.86,1.995l0,7.549c0,0.784 0.286,1.454 0.86,2.009Z" style="fill:#d6d6d6;fill-rule:nonzero;"/><path d="M26.788,0.165l0.979,0l0,11.309c0,1.052 -0.381,1.947 -1.142,2.683c-0.761,0.737 -1.68,1.105 -2.758,1.105c-1.077,0 -1.996,-0.368 -2.757,-1.105c-0.761,-0.736 -1.142,-1.631 -1.142,-2.683l0.979,0c0,0.784 0.286,1.454 0.859,2.009c0.574,0.555 1.261,0.832 2.061,0.832c0.801,0 1.488,-0.277 2.061,-0.832c0.574,-0.555 0.86,-1.225 0.86,-2.009l0,-11.309Z" style="fill:#d6d6d6;fill-rule:nonzero;"/><path d="M29.843,0.165l7.799,0l0,0.947l-3.411,0l0,14.15l-0.978,0l0,-14.15l-3.41,0l0,-0.947Z" style="fill:#d6d6d6;fill-rule:nonzero;"/></g></g></svg>